<?xml version="1.0" standalone="no"?>
<!DOCTYPE svg PUBLIC "-//W3C//DTD SVG 20010904//EN"
 "http://www.w3.org/TR/2001/REC-SVG-20010904/DTD/svg10.dtd">
<svg version="1.0" xmlns="http://www.w3.org/2000/svg"
 width="540.000000pt" height="650.000000pt" viewBox="0 0 540.000000 650.000000"
 preserveAspectRatio="xMidYMid meet">

<g transform="translate(0.000000,650.000000) scale(0.100000,-0.100000)"
fill="#000000" stroke="none">
<path d="M2392 6435 c-38 -43 -47 -84 -38 -189 l6 -82 -43 -11 c-24 -7 -54
-21 -68 -32 -20 -18 -22 -22 -9 -31 8 -5 11 -10 6 -10 -5 0 -3 -7 4 -15 10
-13 10 -19 -4 -33 -21 -24 -22 -100 -1 -108 8 -4 15 -10 15 -16 0 -5 12 -21
26 -35 22 -21 24 -27 11 -34 -8 -5 -20 -22 -27 -39 -7 -16 -19 -30 -26 -30
-22 0 -44 -52 -31 -72 9 -14 3 -25 -34 -63 -29 -29 -51 -44 -61 -40 -8 3 -28
31 -43 61 -30 59 -133 160 -174 171 -28 7 -87 -12 -116 -37 -11 -10 -78 -76
-150 -148 -71 -72 -138 -133 -147 -136 -22 -7 -23 -20 -2 -40 28 -28 75 -19
134 25 30 23 77 52 105 66 27 14 63 36 78 49 l29 24 30 -32 c29 -31 57 -126
43 -148 -11 -18 -23 -1 -29 45 -4 25 -12 45 -18 45 -32 0 25 -159 80 -221 l31
-35 -18 -59 c-13 -41 -25 -61 -40 -66 -27 -10 -28 -23 -1 -14 11 4 20 2 20 -4
0 -6 -3 -11 -7 -12 -5 0 -30 -3 -58 -5 -168 -16 -292 -106 -331 -240 -11 -40
-15 -85 -12 -160 4 -123 10 -118 -124 -106 l-86 7 21 64 c20 63 20 64 1 78
-18 13 -18 14 7 8 25 -6 26 -5 40 72 19 110 17 170 -9 218 -32 60 -74 103
-105 109 -15 3 -41 16 -57 30 -29 24 -39 28 -92 40 -15 3 -30 15 -33 26 -3 11
-11 20 -17 20 -6 0 -7 5 -2 13 5 6 9 19 8 27 -1 8 -2 23 -3 34 -1 12 -6 16
-16 12 -10 -3 -20 5 -30 24 -17 32 -35 40 -35 15 0 -8 8 -15 18 -16 13 0 14
-2 2 -6 -8 -4 -20 -13 -27 -22 -10 -13 -12 -11 -11 17 1 18 -2 35 -6 39 -12
12 -29 -16 -28 -48 1 -29 -1 -30 -17 -15 -16 14 -18 14 -34 -4 -23 -27 -23
-80 1 -80 9 0 25 -16 35 -37 l18 -36 -30 -31 c-20 -21 -34 -50 -44 -93 -13
-58 -13 -62 5 -70 18 -8 17 -13 -23 -72 -36 -54 -55 -106 -62 -171 -1 -8 6
-16 15 -18 19 -4 40 33 89 155 57 144 71 165 83 126 3 -10 27 -31 52 -47 42
-27 45 -32 40 -60 -4 -17 -8 -38 -9 -48 -2 -9 -8 -22 -14 -30 -22 -29 -24 -38
-7 -31 15 5 16 2 10 -27 -3 -19 -11 -37 -17 -41 -8 -4 -7 -8 2 -11 8 -3 11 -9
7 -13 -4 -4 -72 0 -151 9 -80 9 -152 14 -161 10 -9 -3 -18 0 -20 7 -13 44 -16
48 -30 43 -8 -3 -14 -18 -14 -32 0 -15 -6 -45 -13 -67 -11 -32 -13 -120 -11
-422 l3 -383 27 0 c23 0 30 -7 47 -52 24 -63 62 -94 101 -84 26 7 69 46 121
109 l21 27 387 0 386 0 -7 103 c-4 57 -3 142 1 190 l7 88 46 -38 c26 -20 49
-40 52 -43 3 -4 20 -15 38 -25 26 -16 32 -26 33 -55 2 -30 3 -31 6 -7 2 15 8
27 11 27 4 0 34 -18 67 -40 33 -22 65 -40 72 -40 15 0 171 -147 185 -174 8
-16 3 -14 -21 8 -29 28 -31 29 -31 8 0 -13 5 -20 13 -16 7 2 24 -7 36 -20 20
-21 22 -28 11 -41 -8 -10 -10 -24 -4 -42 10 -38 12 -73 2 -67 -4 3 -8 0 -8 -6
0 -6 6 -13 14 -16 8 -3 13 -21 13 -46 0 -46 10 -57 85 -93 34 -15 44 -25 36
-33 -17 -17 -5 -142 15 -157 22 -16 22 -35 0 -35 -10 0 -2 -8 17 -16 19 -9 43
-20 52 -25 10 -5 33 -9 52 -9 24 0 36 -5 39 -17 4 -14 5 -12 6 5 1 14 7 22 19
22 9 0 33 8 52 18 23 13 48 17 73 14 33 -4 37 -2 31 14 -5 15 -4 16 4 4 6 -8
8 -18 6 -22 -3 -4 1 -8 8 -8 8 0 9 -3 3 -8 -10 -7 -58 -132 -50 -132 2 0 13
21 25 46 16 31 25 42 31 33 5 -9 15 -4 37 19 28 30 34 32 74 26 59 -8 119 -24
143 -37 23 -12 95 -10 110 4 18 18 42 8 84 -36 53 -56 99 -80 167 -90 86 -11
195 36 274 119 64 67 73 66 104 -18 15 -39 49 -121 76 -183 64 -146 67 -158
41 -172 -18 -10 -39 -9 -92 5 -9 3 -24 -3 -33 -11 -18 -18 -21 -35 -6 -35 21
0 76 -54 114 -113 18 -27 49 -36 61 -17 4 6 11 8 16 5 11 -7 1 -54 -16 -75 -8
-10 -13 -58 -14 -135 -2 -66 -3 -129 -4 -140 -2 -43 3 -78 11 -71 4 4 15 28
24 54 16 45 16 46 17 15 1 -18 -8 -54 -18 -81 -14 -34 -18 -62 -14 -92 4 -30
3 -41 -5 -36 -6 3 -10 14 -10 24 2 30 -23 92 -38 92 -7 0 -16 -12 -19 -27 -3
-16 -10 -41 -15 -58 -4 -16 -12 -50 -15 -75 -11 -66 -28 -87 -21 -25 5 45 4
48 -9 31 -7 -10 -18 -15 -24 -11 -15 9 -14 4 9 -46 33 -73 30 -79 -42 -76 -38
1 -63 -2 -65 -9 -2 -6 12 -32 32 -58 19 -25 35 -48 35 -51 0 -2 -19 -2 -43 1
-37 5 -47 2 -75 -20 -25 -22 -38 -26 -65 -21 -33 6 -33 6 -51 -52 -11 -32 -18
-77 -17 -101 1 -24 -8 -95 -19 -159 -11 -63 -20 -153 -20 -200 0 -100 -6 -105
-80 -68 -58 29 -126 31 -143 4 -15 -23 0 -90 18 -82 8 3 15 1 15 -5 0 -5 -6
-12 -14 -15 -21 -8 -27 -62 -10 -102 10 -26 12 -41 4 -55 -5 -10 -10 -29 -10
-42 0 -21 -1 -21 -15 6 -12 22 -13 37 -6 58 9 25 7 59 -5 100 -6 21 -109 92
-122 84 -13 -8 -21 -58 -31 -209 -7 -89 -14 -135 -26 -153 -9 -14 -13 -33 -10
-43 3 -12 0 -21 -10 -25 -8 -3 -15 -17 -15 -31 0 -31 -13 -57 -52 -107 -23
-29 -37 -38 -61 -38 -17 0 -38 -7 -48 -16 -10 -9 -36 -18 -58 -21 -23 -3 -44
-10 -47 -15 -5 -7 283 -6 367 1 14 2 29 57 29 111 0 50 3 61 25 78 32 25 109
151 135 218 10 29 22 75 26 102 6 49 7 49 71 82 52 25 73 31 102 26 45 -7 81
15 81 49 0 14 9 29 20 35 23 12 26 59 10 168 -29 206 -32 243 -21 256 13 15 5
27 -14 20 -29 -11 -11 -374 21 -425 3 -5 1 -9 -5 -9 -5 0 -16 -2 -23 -5 -11
-4 -17 35 -32 194 -17 185 -17 202 -3 225 20 30 50 41 75 27 55 -29 111 -41
136 -30 14 7 29 9 33 6 3 -4 -4 -39 -15 -79 -12 -40 -27 -107 -33 -148 -6 -41
-17 -99 -24 -127 -15 -59 -22 -53 63 -56 26 -1 27 -3 32 -71 l5 -71 35 -3 c52
-4 70 14 77 81 6 54 14 69 28 47 3 -6 20 -10 37 -10 17 0 39 -7 49 -16 16 -15
17 -14 12 5 -3 12 -10 21 -15 21 -6 0 -7 11 -4 25 4 16 0 40 -10 62 -22 44
-12 62 42 79 l39 13 -63 -2 c-58 -2 -63 -3 -58 -22 20 -86 19 -94 -10 -100
-16 -4 -35 -8 -41 -11 -16 -4 -16 -14 2 131 8 65 15 122 15 125 1 18 20 -29
20 -49 0 -45 8 -16 14 50 5 61 4 67 -17 78 -21 11 -21 11 3 5 l24 -7 -27 36
c-15 20 -27 39 -27 44 0 4 -8 17 -17 28 l-16 20 8 -20 c4 -11 11 -33 16 -50 8
-28 7 -29 -6 -11 -8 11 -15 28 -15 37 0 10 -6 20 -12 22 -19 8 11 27 30 19 10
-3 13 -1 8 6 -4 7 -3 12 3 12 17 0 80 -69 87 -94 3 -13 14 -26 23 -29 19 -5
55 -92 45 -108 -3 -5 -1 -9 4 -9 5 0 27 -12 50 -28 56 -37 135 -148 174 -243
24 -59 34 -75 39 -62 5 13 9 7 14 -22 4 -22 11 -55 16 -74 4 -19 7 -37 4 -39
-7 -8 -35 70 -28 81 3 5 1 7 -5 3 -6 -4 -17 16 -28 51 -9 32 -19 52 -21 46 -3
-7 -4 -15 -4 -18 2 -9 -38 -45 -49 -45 -6 0 -22 -11 -35 -24 -13 -14 -32 -26
-42 -29 -14 -4 -12 -5 5 -6 l23 -1 -20 -29 c-26 -36 -26 -41 -2 -41 21 0 46
33 66 88 9 24 14 30 14 17 1 -11 -13 -49 -29 -83 -17 -35 -30 -72 -30 -82 0
-28 17 -33 24 -7 3 13 16 35 29 49 l23 25 0 -31 c0 -17 3 -46 8 -65 5 -22 5
-31 -2 -27 -6 3 -13 2 -17 -4 -4 -6 5 -9 20 -8 24 2 59 38 37 38 -5 0 -4 27 1
61 7 41 7 75 -1 107 -6 26 -9 48 -7 50 8 8 48 -120 62 -198 9 -47 20 -90 25
-96 14 -19 -17 -42 -66 -49 -25 -4 -51 -4 -58 0 -7 3 -5 0 5 -8 10 -8 23 -32
29 -53 5 -22 19 -47 29 -57 10 -10 19 -21 19 -25 0 -4 8 -8 18 -8 9 -1 26 -5
36 -9 16 -7 18 -5 13 9 -4 9 14 -3 39 -28 26 -24 60 -50 76 -57 42 -17 30 -30
-32 -34 -41 -2 -65 3 -94 19 -28 15 -40 18 -43 9 -3 -7 -12 -13 -20 -13 -14 0
-14 -3 2 -20 16 -18 31 -20 130 -20 106 0 113 1 118 21 8 29 1 42 -33 62 -82
49 -113 92 -125 170 -7 44 -5 49 24 74 17 15 31 34 31 43 0 9 -16 48 -35 88
-19 40 -42 101 -51 135 -31 123 -126 279 -237 391 -41 42 -71 81 -74 99 -3 15
-16 35 -29 44 -13 8 -26 25 -30 36 -3 12 -24 41 -47 64 -36 38 -40 47 -41 95
0 29 10 89 22 133 24 82 37 174 22 159 -4 -5 -15 -35 -24 -68 -10 -32 -18 -57
-20 -55 -8 11 11 143 22 147 7 2 12 21 12 43 0 25 -4 38 -10 34 -14 -9 -4 31
28 115 17 46 24 84 24 130 0 36 2 59 5 52 3 -8 9 -10 16 -4 7 5 34 15 61 21
51 12 65 6 66 -27 0 -7 13 -39 29 -70 16 -31 37 -73 46 -92 10 -19 27 -48 38
-64 17 -24 19 -39 14 -112 l-6 -84 76 0 75 0 -6 57 c-3 32 -9 86 -12 121 -4
34 -11 65 -15 68 -5 3 -9 25 -9 49 0 63 -35 148 -81 196 -32 33 -39 48 -39 79
0 27 -8 48 -25 68 -18 22 -25 40 -23 64 3 29 0 33 -22 36 -41 6 -47 21 -12 28
17 4 35 6 39 6 5 0 12 6 16 14 11 20 37 18 94 -8 26 -12 53 -22 58 -22 6 -1 9
-10 7 -20 -2 -12 1 -15 8 -11 9 6 9 2 1 -13 -7 -14 -8 -35 -3 -59 8 -37 6 -73
-5 -73 -2 0 -12 9 -22 21 -16 20 -18 20 -31 4 -12 -15 -10 -23 14 -68 16 -29
32 -55 36 -60 3 -4 23 9 43 30 46 45 65 106 63 195 -1 66 -2 68 -45 106 -34
30 -41 40 -28 45 18 7 13 26 -29 128 -13 31 -23 73 -22 95 3 81 -14 281 -28
318 -8 21 -12 41 -9 44 3 3 36 -4 73 -16 38 -12 89 -22 114 -22 40 0 50 5 73
32 26 31 26 32 7 47 -13 11 -18 22 -13 34 5 15 13 9 43 -30 45 -58 104 -115
138 -134 15 -7 54 -13 95 -12 106 1 215 36 125 39 -69 3 -188 81 -205 135 -4
10 -10 19 -15 19 -5 0 -17 14 -26 31 -20 39 -13 47 63 70 56 18 58 18 89 -1
17 -11 42 -20 55 -20 19 0 15 4 -20 22 l-43 21 23 18 c19 14 21 20 11 32 -10
11 -9 17 3 27 13 11 18 10 31 -8 10 -15 26 -22 49 -22 34 0 54 14 35 25 -19
12 -11 51 13 62 47 22 80 34 84 30 2 -3 5 -51 5 -108 2 -115 -16 -175 -70
-233 l-27 -29 33 23 c62 45 99 169 87 291 l-7 67 89 27 c48 14 96 29 106 31
12 4 17 16 17 40 0 38 -3 39 -48 23 -17 -6 -37 -9 -44 -7 -7 3 11 13 40 22 28
10 52 22 52 27 0 13 -5 12 -120 -26 -58 -19 -109 -34 -115 -34 -5 0 -21 23
-35 51 -31 65 -111 153 -161 179 -22 11 -56 18 -81 18 l-43 -2 40 -6 c59 -10
96 -34 152 -95 52 -57 101 -142 88 -154 -17 -18 -72 -28 -103 -20 -24 7 -46 5
-80 -6 -25 -9 -58 -16 -74 -16 -24 0 -28 4 -28 28 0 26 22 69 44 84 8 5 8 8 0
8 -20 0 -55 -47 -61 -83 -8 -50 -25 -63 -48 -37 -25 27 -45 25 -45 -4 0 -47
-41 -40 -60 10 -9 23 11 106 31 130 6 8 9 21 5 29 -3 9 -2 14 2 11 4 -2 28 33
52 80 39 74 48 85 79 94 20 5 44 10 54 10 9 0 17 7 17 16 0 14 -8 16 -52 11
-29 -3 -75 -15 -101 -26 -27 -12 -53 -19 -58 -15 -15 9 -10 43 16 115 17 49
20 67 11 63 -8 -3 -17 -22 -21 -42 -4 -20 -13 -49 -21 -64 -8 -15 -15 -45 -17
-66 -1 -30 -10 -45 -40 -72 l-38 -33 -24 23 c-15 14 -25 35 -25 51 0 15 -4 31
-10 34 -11 7 -13 54 -4 79 3 9 12 16 20 16 8 0 14 5 14 10 0 6 13 10 29 10 33
0 106 28 97 37 -3 4 -71 -4 -151 -17 l-145 -24 -49 21 c-41 17 -51 18 -55 7
-3 -8 -11 -13 -18 -12 -7 2 -12 -5 -13 -15 0 -10 -7 -22 -15 -27 -10 -7 -11
-13 -5 -17 10 -8 11 -21 4 -77 -4 -28 -1 -30 42 -41 25 -7 81 -30 125 -52 l79
-39 12 -131 c6 -71 16 -153 21 -181 5 -31 5 -56 -1 -67 -8 -14 -6 -16 11 -11
11 4 23 2 27 -4 8 -12 -32 -28 -105 -42 -51 -10 -59 -9 -109 16 -48 25 -57 26
-85 15 -17 -7 -49 -28 -70 -48 -21 -20 -35 -29 -31 -22 13 22 -44 -21 -87 -66
-38 -40 -81 -112 -91 -153 -4 -14 -18 -38 -32 -55 l-24 -30 15 54 c19 66 29
89 50 118 l16 23 -42 -15 c-84 -30 -140 -44 -140 -35 0 4 30 18 66 30 36 12
64 24 62 26 -2 2 -34 -6 -71 -18 -53 -18 -71 -20 -89 -10 -29 14 -120 32 -130
26 -13 -8 1 -24 17 -18 19 8 108 -33 100 -46 -8 -13 -41 -13 -65 0 -15 8 -24
6 -40 -10 -11 -11 -47 -31 -81 -45 -73 -29 -101 -55 -137 -126 -30 -58 -55
-80 -72 -63 -8 8 0 30 25 75 45 79 93 131 167 178 l56 36 -29 33 c-38 42 -102
71 -156 72 -33 0 -43 4 -48 20 -4 11 -11 18 -16 15 -5 -4 -9 1 -9 9 0 9 6 15
13 14 8 -2 12 10 10 37 0 22 5 47 12 55 7 8 18 25 24 37 l11 22 -40 -18 c-22
-10 -43 -21 -46 -24 -3 -3 -9 -38 -12 -78 -7 -69 -9 -75 -41 -96 -19 -13 -48
-23 -66 -23 -29 0 -33 4 -45 43 -11 39 -15 170 -5 187 5 8 -9 140 -24 221 -5
31 -11 100 -12 153 l-3 96 37 38 c33 33 47 40 112 51 41 7 85 10 98 6 21 -6
21 -6 3 9 -11 9 -39 16 -63 16 -49 0 -52 7 -20 47 13 15 31 45 41 66 9 20 21
37 25 37 5 0 12 11 15 25 7 26 7 26 36 9 24 -15 30 -25 32 -63 l3 -46 93 -3
92 -3 0 251 0 250 270 0 270 0 0 32 c0 17 4 45 9 62 5 17 13 44 18 61 4 16 18
35 31 41 37 18 62 46 62 69 0 12 14 50 31 84 28 56 30 65 18 94 -7 18 -23 44
-36 58 -13 14 -26 42 -30 62 -10 61 -30 45 -36 -29 -4 -50 -10 -71 -28 -90
-30 -32 -33 -26 -9 21 11 22 20 50 20 64 0 23 -1 23 -18 8 -10 -10 -23 -17
-29 -17 -13 0 -47 -41 -87 -105 -40 -66 -57 -45 -22 29 14 30 26 61 26 68 0 8
7 23 15 34 12 16 16 17 24 5 7 -11 14 -5 28 26 19 39 19 41 1 52 -15 10 -21 7
-38 -21 -11 -18 -20 -38 -20 -44 0 -6 -16 -22 -35 -35 -19 -13 -35 -28 -35
-32 0 -5 -15 -23 -32 -40 -21 -19 -28 -32 -20 -34 15 -6 16 -45 1 -60 -8 -8 3
-15 37 -27 60 -20 107 -20 146 0 16 9 28 11 24 6 -13 -21 -77 -42 -128 -42
-98 0 -186 81 -196 180 l-5 50 -393 0 -394 0 0 -199 c0 -110 -2 -206 -5 -213
-4 -9 7 -18 32 -27 48 -18 100 -51 186 -119 75 -59 105 -101 130 -179 17 -50
16 -53 -4 -88 -23 -38 -39 -33 -39 11 0 23 -80 104 -146 147 -35 24 -55 28
-160 36 -77 6 -139 17 -173 30 -47 17 -56 18 -65 6 -6 -8 -22 -18 -36 -23 -20
-8 -13 -10 44 -16 66 -8 68 -9 63 -33 -3 -14 0 -42 6 -62 6 -20 11 -54 12 -76
0 -22 2 -69 3 -104 2 -53 4 -62 16 -52 11 9 18 1 37 -43 l22 -55 51 -3 51 -3
3 -63 c3 -55 0 -67 -23 -93 -14 -17 -25 -37 -25 -44 0 -7 -50 -57 -111 -111
-70 -61 -120 -115 -138 -146 -16 -28 -30 -45 -32 -39 -2 6 -5 -15 -6 -46 -2
-31 -8 -60 -14 -64 -8 -4 -4 -14 10 -28 11 -11 21 -29 21 -38 0 -31 -12 -63
-20 -58 -5 3 -12 0 -16 -6 -4 -8 -3 -9 4 -5 7 4 12 3 12 -3 0 -5 -4 -13 -10
-16 -5 -3 -10 -28 -10 -54 0 -27 -3 -62 -6 -79 -6 -28 -9 -31 -38 -26 -58 11
-92 24 -146 59 -58 37 -94 44 -104 20 -9 -25 -59 -18 -96 15 -18 17 -29 30
-24 30 5 1 -4 11 -19 24 -30 24 -29 57 2 49 9 -2 28 5 42 16 13 11 19 20 12
21 -6 0 -21 17 -33 38 -28 47 -49 235 -34 303 10 41 11 37 19 -71 9 -101 10
-107 13 -52 2 34 -1 94 -7 132 -7 53 -6 93 5 158 8 48 14 128 14 177 0 85 -19
198 -35 213 -4 4 -4 -3 -1 -15 11 -36 -2 -27 -24 18 -26 50 -34 47 -16 -6 8
-22 23 -44 35 -50 11 -5 21 -18 21 -29 0 -14 -3 -16 -12 -8 -10 8 -13 -22 -13
-143 0 -110 -4 -158 -12 -167 -7 -6 -13 -18 -13 -25 0 -24 -53 -94 -67 -89 -7
3 -12 0 -10 -6 1 -5 -13 -19 -30 -29 -18 -10 -33 -15 -33 -11 0 4 -4 0 -10 -8
-12 -19 -144 -27 -165 -10 -10 9 -15 9 -15 1 0 -6 -5 -11 -11 -11 -5 0 -7 5
-4 10 3 6 -2 10 -12 10 -10 0 -29 10 -43 23 -14 13 -29 24 -35 25 -5 1 -10 6
-10 11 0 5 -4 13 -9 18 -6 5 -6 2 -1 -7 5 -8 -19 12 -53 44 -34 33 -62 64 -62
69 0 4 5 5 10 2 6 -3 10 -2 10 4 0 5 -9 9 -20 8 -11 -1 -20 -7 -20 -14 0 -7
-4 -13 -9 -13 -12 0 -21 25 -21 58 0 15 -9 38 -20 52 l-20 25 15 -43 c18 -52
3 -46 -26 10 -34 67 -48 113 -38 130 5 10 3 36 -7 69 -22 73 -15 187 16 257
67 154 277 234 426 161 40 -19 45 -25 40 -48 -3 -14 -3 -20 0 -13 3 6 11 9 17
5 7 -4 8 0 3 12 -7 18 -6 18 16 0 58 -49 80 -78 66 -87 -10 -6 -8 -8 6 -6 13
2 28 -12 50 -44 31 -47 57 -66 36 -27 -7 11 -9 23 -6 26 2 3 16 -18 30 -46 15
-28 28 -51 31 -51 13 0 -11 66 -32 88 -16 17 -23 35 -20 50 5 25 -26 54 -48
46 -7 -3 -22 7 -33 23 -15 22 -17 30 -7 39 6 7 20 22 31 35 10 13 37 36 59 50
33 22 46 40 73 106 17 44 48 98 67 120 41 48 42 53 13 53 -39 0 -68 12 -68 26
0 8 5 14 10 14 6 0 10 -4 10 -9 0 -5 9 -11 20 -14 11 -3 20 0 20 6 0 8 4 7 12
-1 9 -9 16 -8 30 5 11 10 18 11 18 5 0 -21 53 -12 110 17 72 37 72 36 33 296
l-4 30 53 1 c29 1 90 13 136 27 63 19 90 24 108 16 39 -14 52 -10 21 7 -36 20
-30 26 11 15 41 -12 41 -6 0 19 -33 20 -74 27 -64 11 3 -5 -20 -15 -52 -23
-49 -13 -64 -13 -97 -1 -44 15 -70 10 -62 -11 4 -9 -10 -5 -39 11 -32 18 -44
31 -44 48 0 18 -7 25 -29 30 -15 3 -34 5 -42 3 -10 -2 -13 6 -11 32 5 70 3
104 -8 130 -10 25 -6 35 41 110 l53 83 -13 71 c-6 39 -16 72 -21 74 -5 2 -25
14 -45 28 -20 13 -40 24 -44 24 -5 0 -23 -16 -39 -35z m-96 -480 c-7 -38 -21
-46 -29 -17 -2 9 -8 25 -12 34 -5 12 -1 17 17 20 31 5 31 4 24 -37z m234 -394
c0 -12 -20 -25 -27 -18 -7 7 6 27 18 27 5 0 9 -4 9 -9z m1730 -55 c-12 -37
-37 -64 -27 -30 3 11 9 34 12 52 5 23 10 31 17 24 7 -7 6 -22 -2 -46z m-1685
34 c-3 -5 -11 -10 -16 -10 -6 0 -7 5 -4 10 3 6 11 10 16 10 6 0 7 -4 4 -10z
m-268 -95 c1 -19 -3 -35 -8 -35 -10 0 -12 31 -3 54 9 23 10 20 11 -19z m147
20 c-4 -8 -14 -15 -23 -15 -14 1 -13 3 3 15 25 19 27 19 20 0z m-463 -178 c-8
-8 -11 -5 -11 9 0 27 14 41 18 19 2 -9 -1 -22 -7 -28z m-800 -328 l-10 -24 0
26 c-1 14 2 29 6 33 12 12 14 -9 4 -35z m2040 -79 c81 -75 86 -78 105 -77 15
2 18 -4 15 -37 -1 -22 -6 -49 -11 -60 -14 -36 -70 -85 -105 -92 -49 -9 -96
-27 -127 -47 -29 -20 -79 -20 -86 1 -2 6 3 12 12 12 23 0 20 21 -4 27 -11 3
-20 12 -20 20 0 24 53 12 65 -14 11 -25 20 -29 30 -13 3 6 -3 23 -15 39 -14
21 -28 29 -48 29 -42 -1 -69 11 -75 32 -4 15 0 20 16 20 28 0 10 18 -23 23
-13 2 -25 8 -27 14 -4 10 35 103 43 103 3 0 22 -18 43 -40 39 -41 68 -53 57
-24 -6 16 19 61 31 56 4 -2 9 1 11 7 2 5 -11 17 -27 26 -52 26 -36 40 50 44
31 1 45 -7 90 -49z m-1984 4 c-9 -9 -28 6 -21 18 4 6 10 6 17 -1 6 -6 8 -13 4
-17z m-68 -108 c-12 -31 -26 -56 -30 -56 -5 0 -5 8 0 18 5 9 17 36 27 60 25
62 28 44 3 -22z m-318 -59 c-14 -17 -4 -27 26 -27 16 0 23 -6 23 -20 0 -11 -4
-20 -9 -20 -5 0 -11 -9 -14 -20 -4 -17 -14 -20 -62 -20 -82 0 -94 16 -54 74
27 40 35 46 66 46 29 0 33 -3 24 -13z m-121 -7 c0 -5 -5 -10 -11 -10 -5 0 -7
5 -4 10 3 6 8 10 11 10 2 0 4 -4 4 -10z m205 -47 c-10 -55 -25 -65 -25 -17 0
41 5 54 23 54 5 0 6 -16 2 -37z m211 -28 c10 -24 -6 -38 -21 -18 -7 10 -11 21
-9 25 8 13 24 9 30 -7z m68 -35 c7 -33 6 -34 -9 -16 -8 11 -15 31 -15 45 0 34
16 15 24 -29z m-227 -2 c-3 -8 -6 -5 -6 6 -1 11 2 17 5 13 3 -3 4 -12 1 -19z
m2303 -29 c-7 -11 -14 -19 -16 -16 -7 7 7 37 17 37 6 0 5 -9 -1 -21z m-2140
-18 c0 -5 -9 -12 -19 -16 -11 -3 -22 -19 -26 -35 -10 -46 -21 -36 -17 15 4 42
6 45 33 45 16 0 29 -4 29 -9z m50 -3 c0 -7 -5 -20 -10 -28 -8 -12 -10 -9 -10
13 0 15 5 27 10 27 6 0 10 -6 10 -12z m-160 -12 c0 -11 -19 -15 -25 -6 -3 5 1
10 9 10 9 0 16 -2 16 -4z m225 -108 c12 -34 14 -52 6 -65 -10 -17 -10 -17 -11
0 0 19 -20 23 -36 7 -7 -7 -14 2 -23 29 -10 33 -9 47 4 77 15 35 16 36 30 18
8 -10 22 -40 30 -66z m-277 -19 c-3 -8 -7 -3 -11 10 -4 17 -3 21 5 13 5 -5 8
-16 6 -23z m-60 -52 c2 -47 0 -57 -13 -57 -14 0 -15 -8 -9 -45 5 -34 2 -50 -8
-63 -8 -9 -18 -25 -21 -35 -8 -22 -40 -19 -45 5 -2 9 11 71 29 138 25 96 35
120 48 118 12 -2 17 -17 19 -61z m-72 26 c-3 -10 -16 -63 -29 -118 -43 -173
-42 -155 -2 -155 32 0 35 -3 35 -28 0 -40 19 -56 42 -35 10 9 18 22 18 28 0 7
7 18 15 25 17 14 21 35 5 25 -5 -3 -10 -2 -10 4 0 5 5 13 11 17 6 3 9 17 6 30
-5 29 10 43 20 18 17 -45 -55 -303 -80 -287 -6 3 -7 1 -3 -5 11 -18 -24 -70
-54 -80 -66 -23 -100 42 -100 192 0 141 33 265 93 353 24 36 42 44 33 16z
m338 -26 c-3 -10 2 -27 12 -38 10 -11 12 -19 6 -19 -7 0 -12 -4 -12 -10 0 -18
29 -10 44 12 11 15 16 17 16 8 -1 -12 -63 -65 -92 -78 -7 -3 2 34 18 72 4 11
4 17 -2 14 -5 -4 -7 13 -5 39 2 31 6 41 12 32 5 -8 6 -22 3 -32z m-227 -49
c-3 -8 -6 -5 -6 6 -1 11 2 17 5 13 3 -3 4 -12 1 -19z m287 -63 c-6 -16 -24
-21 -24 -7 0 11 11 22 21 22 5 0 6 -7 3 -15z m64 -22 c-10 -2 -28 -2 -40 0
-13 2 -5 4 17 4 22 1 32 -1 23 -4z m3232 -13 c0 -5 -4 -10 -10 -10 -5 0 -10 5
-10 10 0 6 5 10 10 10 6 0 10 -4 10 -10z m-3260 -43 c0 -25 -31 -57 -55 -57
-26 0 -50 32 -41 56 7 18 96 20 96 1z m950 -7 c14 -7 18 -20 17 -57 -1 -27 -6
-51 -12 -55 -6 -5 -3 -8 8 -8 20 0 19 -20 -2 -36 -12 -10 -11 -13 7 -18 18 -6
22 -15 22 -47 0 -21 -4 -39 -10 -39 -5 0 -6 8 -3 18 6 15 5 15 -10 3 -9 -7
-14 -18 -10 -25 4 -6 -1 -5 -10 2 -19 16 -41 77 -34 95 2 7 -2 18 -9 25 -12
11 -14 8 -14 -18 0 -16 -3 -30 -6 -30 -3 0 -24 18 -48 40 -58 54 -60 89 -7
118 21 12 48 23 59 25 12 2 25 6 28 10 9 9 12 9 34 -3z m-1330 -80 c0 -5 -2
-10 -4 -10 -3 0 -8 5 -11 10 -3 6 -1 10 4 10 6 0 11 -4 11 -10z m1395 -340 c3
-5 2 -10 -4 -10 -5 0 -13 5 -16 10 -3 6 -2 10 4 10 5 0 13 -4 16 -10z m2145
-20 c0 -5 -4 -10 -9 -10 -6 0 -13 5 -16 10 -3 6 1 10 9 10 9 0 16 -4 16 -10z
m114 -77 c-10 -7 -23 -13 -28 -13 -6 0 -2 7 8 15 17 13 18 15 3 15 -20 0 -20
1 -5 36 l12 27 14 -34 c12 -30 12 -34 -4 -46z m-324 57 c0 -5 -7 -10 -16 -10
-8 0 -12 5 -9 10 3 6 10 10 16 10 5 0 9 -4 9 -10z m205 -20 c3 -5 1 -10 -4
-10 -6 0 -11 5 -11 10 0 6 2 10 4 10 3 0 8 -4 11 -10z m-283 -75 c-2 -11 -8
-47 -13 -80 -12 -76 -26 -120 -44 -135 -12 -10 -13 -7 -5 21 5 17 9 68 8 113
-2 90 4 109 35 104 16 -2 21 -9 19 -23z m154 -107 c13 -26 24 -58 24 -70 0
-20 -3 -18 -17 11 -9 19 -25 36 -35 39 -10 2 -18 9 -19 16 -7 92 -7 91 8 70 8
-10 25 -40 39 -66z m-1142 50 c-14 -47 -23 -66 -33 -73 -15 -9 -14 20 3 60 17
39 42 49 30 13z m-706 -85 c2 -8 -5 -13 -17 -13 -12 0 -21 6 -21 16 0 18 31
15 38 -3z m1872 -93 c0 -5 -2 -10 -4 -10 -3 0 -8 5 -11 10 -3 6 -1 10 4 10 6
0 11 -4 11 -10z m-465 -1305 c-4 -25 -9 -44 -12 -41 -2 2 -1 25 2 51 4 25 9
44 12 41 2 -2 1 -25 -2 -51z m25 -155 c-16 -61 -25 -41 -9 22 7 29 15 45 17
36 2 -9 -2 -35 -8 -58z m-160 31 c0 -5 3 -16 6 -24 4 -11 0 -15 -13 -13 -17 3
-19 8 -14 36 1 13 21 13 21 1z m-614 -812 c3 -6 -3 -21 -15 -32 l-21 -21 0 32
c0 32 21 45 36 21z m133 -70 c6 -17 8 -43 4 -58 -7 -25 -7 -25 -14 9 -4 19
-10 45 -14 58 -11 35 12 26 24 -9z m1180 -184 c0 -5 -13 15 -29 45 -16 30 -29
60 -29 65 0 6 13 -15 29 -45 16 -30 29 -59 29 -65z"/>
<path d="M3020 4751 c0 -20 73 -85 83 -74 4 3 -5 14 -18 25 -13 10 -27 27 -30
37 -8 27 -35 35 -35 12z"/>
<path d="M1235 6038 c-35 -20 -44 -42 -20 -52 19 -7 71 37 61 52 -9 15 -15 15
-41 0z"/>
<path d="M1324 6023 c2 -16 8 -50 11 -76 6 -44 9 -48 28 -43 12 3 30 6 40 6
32 0 37 41 11 85 -23 39 -43 53 -77 54 -15 1 -18 -4 -13 -26z"/>
<path d="M1229 5889 c-13 -25 2 -69 23 -69 40 1 58 13 58 41 0 47 -60 67 -81
28z"/>
<path d="M1389 5827 c-24 -21 -29 -57 -8 -57 16 0 61 50 57 62 -7 20 -22 18
-49 -5z"/>
<path d="M1250 5760 c8 -5 20 -10 25 -10 6 0 3 5 -5 10 -8 5 -19 10 -25 10 -5
0 -3 -5 5 -10z"/>
<path d="M4018 5744 c-15 -8 -33 -24 -39 -35 -11 -21 -9 -21 26 -15 38 7 105
45 105 59 0 12 -64 7 -92 -9z"/>
<path d="M4498 5744 c-3 -3 -4 -23 -1 -45 4 -25 -2 -61 -15 -102 -11 -34 -23
-100 -26 -147 l-5 -85 34 104 c29 88 55 214 55 267 0 14 -31 20 -42 8z"/>
<path d="M4595 5683 c-4 -21 -11 -51 -17 -68 -14 -44 -21 -248 -8 -240 6 4 8
20 4 39 -4 23 -1 38 10 49 9 8 16 25 16 36 0 34 18 69 39 76 14 4 21 15 21 30
0 13 5 27 10 30 15 9 -4 39 -39 65 l-30 21 -6 -38z"/>
<path d="M4181 5705 c1 -19 18 -51 18 -35 0 8 -4 22 -9 30 -5 8 -9 11 -9 5z"/>
<path d="M4450 5682 c0 -18 12 -42 21 -42 14 0 11 20 -6 36 -8 9 -15 11 -15 6z"/>
<path d="M3965 5651 c-7 -12 12 -24 25 -16 11 7 4 25 -10 25 -5 0 -11 -4 -15
-9z"/>
<path d="M4016 5615 c-25 -26 -80 -62 -106 -70 -12 -4 -20 -9 -17 -11 2 -2 24
2 49 10 51 15 103 57 96 76 -3 9 -9 8 -22 -5z"/>
<path d="M4368 5590 c-12 -38 -10 -66 3 -53 6 6 9 26 7 44 -3 32 -3 33 -10 9z"/>
<path d="M577 5530 c-32 -26 -29 -33 15 -36 32 -3 64 19 53 36 -10 16 -25 12
-26 -7 -1 -13 -3 -11 -8 5 l-6 24 -28 -22z"/>
<path d="M686 5504 c-3 -9 -13 -14 -21 -10 -8 3 -17 1 -20 -3 -3 -5 2 -11 10
-15 8 -3 15 -13 15 -22 0 -13 -3 -14 -13 -5 -10 8 -18 7 -31 -2 -16 -12 -14
-17 27 -70 l45 -57 -5 47 c-4 33 -2 45 5 38 5 -5 12 -19 14 -30 2 -13 12 -21
31 -23 15 -2 27 1 27 6 0 4 14 24 30 42 28 32 34 50 17 52 -3 1 -27 4 -52 8
-40 6 -45 5 -45 -12 0 -10 -4 -18 -10 -18 -11 0 -13 17 -10 63 2 30 -5 35 -14
11z"/>
<path d="M905 5400 c-3 -5 -1 -10 4 -10 6 0 11 5 11 10 0 6 -2 10 -4 10 -3 0
-8 -4 -11 -10z"/>
<path d="M4390 5291 c0 -25 5 -41 15 -45 19 -7 19 -47 0 -142 -9 -41 -13 -79
-10 -84 8 -12 53 10 79 39 35 39 62 231 32 231 -22 0 -27 -29 -20 -110 5 -67
4 -78 -16 -102 -12 -16 -28 -28 -37 -28 -12 0 -14 7 -10 28 15 73 19 155 9
175 -6 12 -13 34 -16 50 -9 40 -26 33 -26 -12z"/>
<path d="M4257 5180 c-4 -14 -7 -47 -7 -73 0 -38 5 -53 26 -74 29 -29 41 -25
24 8 -7 12 -18 54 -24 93 -10 55 -14 65 -19 46z"/>
<path d="M4592 5139 c-7 -12 -11 -24 -7 -27 3 -4 10 0 14 7 5 7 14 10 20 7 13
-8 14 -4 5 18 -8 21 -17 20 -32 -5z"/>
<path d="M4650 5101 c0 -10 19 -25 25 -20 1 2 -3 10 -11 17 -8 7 -14 8 -14 3z"/>
<path d="M4636 5063 c-6 -15 -8 -15 -16 -3 -8 12 -10 10 -10 -7 0 -29 26 -30
35 -2 8 25 0 36 -9 12z"/>
<path d="M4731 5047 c-14 -17 -3 -50 14 -43 16 6 88 -180 81 -207 -4 -15 -2
-17 6 -9 18 18 11 78 -16 140 -13 31 -28 73 -33 92 -9 38 -33 50 -52 27z"/>
<path d="M1910 5034 c0 -8 5 -12 10 -9 6 4 8 11 5 16 -9 14 -15 11 -15 -7z"/>
<path d="M1837 5029 c7 -7 15 -10 18 -7 3 3 -2 9 -12 12 -14 6 -15 5 -6 -5z"/>
<path d="M1876 5025 c4 -8 11 -15 16 -15 6 0 5 6 -2 15 -7 8 -14 15 -16 15 -2
0 -1 -7 2 -15z"/>
<path d="M4496 4999 c-3 -17 -6 -43 -7 -58 0 -14 -3 -20 -6 -13 -6 15 -32 -16
-57 -68 l-17 -35 32 35 c29 32 31 33 25 10 -12 -47 -19 -110 -12 -110 19 0 47
95 53 179 6 91 1 119 -11 60z"/>
<path d="M4399 4995 c-14 -7 -30 -25 -37 -39 -15 -34 0 -34 18 -1 8 14 21 24
29 23 19 -3 41 9 41 23 0 13 -21 11 -51 -6z"/>
<path d="M4457 4973 c-10 -20 -16 -38 -13 -40 8 -8 38 45 34 61 -2 8 -10 0
-21 -21z"/>
<path d="M4710 4996 c0 -25 12 -46 26 -46 12 0 12 5 -1 30 -17 33 -25 38 -25
16z"/>
<path d="M2064 4987 c-3 -9 -10 -14 -15 -11 -5 3 -6 -3 -2 -12 4 -11 8 -13 11
-6 2 7 8 10 12 7 13 -8 20 9 10 25 -7 12 -10 12 -16 -3z"/>
<path d="M1945 4970 c3 -5 8 -10 11 -10 2 0 4 5 4 10 0 6 -5 10 -11 10 -5 0
-7 -4 -4 -10z"/>
<path d="M4542 4940 c0 -19 2 -27 5 -17 2 9 2 25 0 35 -3 9 -5 1 -5 -18z"/>
<path d="M2272 4935 c0 -16 2 -22 5 -12 2 9 2 23 0 30 -3 6 -5 -1 -5 -18z"/>
<path d="M2562 4930 c0 -19 2 -27 5 -17 2 9 2 25 0 35 -3 9 -5 1 -5 -18z"/>
<path d="M2077 4936 c-4 -10 -1 -13 9 -9 7 3 14 9 14 14 0 14 -17 10 -23 -5z"/>
<path d="M2633 4860 c0 -41 2 -58 4 -37 2 20 2 54 0 75 -2 20 -4 3 -4 -38z"/>
<path d="M1825 4910 c3 -5 8 -10 11 -10 2 0 4 5 4 10 0 6 -5 10 -11 10 -5 0
-7 -4 -4 -10z"/>
<path d="M1900 4894 c0 -8 5 -12 10 -9 6 4 8 11 5 16 -9 14 -15 11 -15 -7z"/>
<path d="M4742 4901 c-11 -7 -12 -13 -1 -32 6 -13 15 -31 19 -39 9 -19 50 -26
50 -9 0 10 -48 90 -54 89 0 0 -7 -4 -14 -9z"/>
<path d="M4560 4829 c-7 -11 -10 -23 -7 -25 2 -2 9 7 15 21 14 30 7 33 -8 4z"/>
<path d="M2017 4833 c-4 -3 -7 -11 -7 -17 0 -6 5 -5 12 2 6 6 9 14 7 17 -3 3
-9 2 -12 -2z"/>
<path d="M1830 4820 c0 -5 5 -10 10 -10 6 0 10 5 10 10 0 6 -4 10 -10 10 -5 0
-10 -4 -10 -10z"/>
<path d="M2190 4800 c0 -5 4 -10 9 -10 6 0 13 5 16 10 3 6 -1 10 -9 10 -9 0
-16 -4 -16 -10z"/>
<path d="M2210 4770 c0 -5 4 -10 9 -10 6 0 13 5 16 10 3 6 -1 10 -9 10 -9 0
-16 -4 -16 -10z"/>
<path d="M4510 4755 c-7 -13 -35 -43 -62 -66 -27 -23 -47 -43 -45 -46 3 -2 27
2 55 10 93 28 151 69 122 87 -10 6 -20 3 -33 -11 -26 -28 -37 -23 -25 12 13
38 6 47 -12 14z"/>
<path d="M2038 4763 c7 -3 16 -2 19 1 4 3 -2 6 -13 5 -11 0 -14 -3 -6 -6z"/>
<path d="M2057 4743 c-4 -3 -7 -11 -7 -17 0 -6 5 -5 12 2 6 6 9 14 7 17 -3 3
-9 2 -12 -2z"/>
<path d="M2225 4740 c-3 -5 1 -10 9 -10 9 0 16 5 16 10 0 6 -4 10 -9 10 -6 0
-13 -4 -16 -10z"/>
<path d="M4789 4749 c-4 -11 -9 -59 -12 -105 -2 -28 -12 -64 -22 -80 l-17 -29
25 28 c20 23 25 43 30 105 3 42 4 79 1 81 -2 2 -5 2 -5 0z"/>
<path d="M2020 4720 c0 -5 5 -10 11 -10 5 0 7 5 4 10 -3 6 -8 10 -11 10 -2 0
-4 -4 -4 -10z"/>
<path d="M2190 4720 c0 -5 5 -10 10 -10 6 0 10 5 10 10 0 6 -4 10 -10 10 -5 0
-10 -4 -10 -10z"/>
<path d="M2246 4705 c-3 -8 -1 -15 4 -15 6 0 10 7 10 15 0 8 -2 15 -4 15 -2 0
-6 -7 -10 -15z"/>
<path d="M4575 4685 c-27 -20 -74 -43 -105 -52 -32 -10 -48 -18 -37 -21 21 -4
150 55 187 86 41 35 9 25 -45 -13z"/>
<path d="M2631 4694 c0 -11 3 -14 6 -6 3 7 2 16 -1 19 -3 4 -6 -2 -5 -13z"/>
<path d="M2041 4684 c0 -11 3 -14 6 -6 3 7 2 16 -1 19 -3 4 -6 -2 -5 -13z"/>
<path d="M2210 4684 c0 -8 5 -12 10 -9 6 4 8 11 5 16 -9 14 -15 11 -15 -7z"/>
<path d="M2810 4665 c0 -14 5 -25 10 -25 6 0 10 11 10 25 0 14 -4 25 -10 25
-5 0 -10 -11 -10 -25z"/>
<path d="M2080 4670 c0 -5 5 -10 10 -10 6 0 10 5 10 10 0 6 -4 10 -10 10 -5 0
-10 -4 -10 -10z"/>
<path d="M2255 4671 c-3 -5 -1 -12 5 -16 5 -3 10 1 10 9 0 18 -6 21 -15 7z"/>
<path d="M2222 4651 c4 -13 18 -16 19 -4 0 4 -5 9 -11 12 -7 2 -11 -2 -8 -8z"/>
<path d="M2020 4640 c0 -5 5 -10 11 -10 5 0 7 5 4 10 -3 6 -8 10 -11 10 -2 0
-4 -4 -4 -10z"/>
<path d="M1820 4625 c0 -8 5 -15 10 -15 6 0 10 7 10 15 0 8 -4 15 -10 15 -5 0
-10 -7 -10 -15z"/>
<path d="M1576 4613 c-6 -14 -5 -15 5 -6 7 7 10 15 7 18 -3 3 -9 -2 -12 -12z"/>
<path d="M1627 4613 c-4 -7 -3 -14 3 -18 6 -4 8 -11 5 -16 -4 -5 -1 -9 4 -9
12 0 13 7 2 34 -5 13 -10 16 -14 9z"/>
<path d="M2249 4602 c9 -17 11 -24 11 -42 0 -5 5 -10 10 -10 6 0 10 9 10 20 0
11 -5 20 -11 20 -5 0 -8 4 -5 9 3 5 -1 12 -9 15 -12 4 -13 2 -6 -12z"/>
<path d="M4484 4595 c-19 -14 -18 -14 4 -15 12 0 22 -4 22 -10 0 -5 4 -10 9
-10 4 0 6 11 3 25 -5 29 -11 30 -38 10z"/>
<path d="M1590 4590 c0 -5 5 -10 10 -10 6 0 10 5 10 10 0 6 -4 10 -10 10 -5 0
-10 -4 -10 -10z"/>
<path d="M1760 4589 c0 -5 5 -7 10 -4 6 3 10 8 10 11 0 2 -4 4 -10 4 -5 0 -10
-5 -10 -11z"/>
<path d="M1835 4590 c3 -5 8 -10 11 -10 2 0 4 5 4 10 0 6 -5 10 -11 10 -5 0
-7 -4 -4 -10z"/>
<path d="M1716 4577 c3 -10 9 -15 12 -12 3 3 0 11 -7 18 -10 9 -11 8 -5 -6z"/>
<path d="M1690 4571 c0 -5 5 -13 10 -16 6 -3 10 -2 10 4 0 5 -4 13 -10 16 -5
3 -10 2 -10 -4z"/>
<path d="M1600 4560 c0 -5 4 -10 9 -10 5 0 7 -9 4 -20 -4 -16 -2 -19 11 -14
19 7 20 13 2 37 -15 19 -26 22 -26 7z"/>
<path d="M1775 4560 c3 -5 8 -10 11 -10 2 0 4 5 4 10 0 6 -5 10 -11 10 -5 0
-7 -4 -4 -10z"/>
<path d="M1650 4545 c0 -8 5 -15 10 -15 6 0 10 7 10 15 0 8 -4 15 -10 15 -5 0
-10 -7 -10 -15z"/>
<path d="M2633 4510 c0 -30 2 -43 4 -27 2 15 2 39 0 55 -2 15 -4 2 -4 -28z"/>
<path d="M1710 4530 c0 -5 5 -10 11 -10 5 0 7 5 4 10 -3 6 -8 10 -11 10 -2 0
-4 -4 -4 -10z"/>
<path d="M1790 4530 c0 -5 5 -10 11 -10 5 0 7 5 4 10 -3 6 -8 10 -11 10 -2 0
-4 -4 -4 -10z"/>
<path d="M2075 4530 c3 -5 8 -10 11 -10 2 0 4 5 4 10 0 6 -5 10 -11 10 -5 0
-7 -4 -4 -10z"/>
<path d="M2753 4533 c-9 -3 -13 -26 -13 -65 0 -34 3 -59 6 -55 3 3 6 23 6 43
0 21 4 48 9 61 5 13 7 23 6 22 -1 0 -8 -3 -14 -6z"/>
<path d="M1676 4521 c-12 -5 -15 -10 -9 -14 6 -4 16 0 23 8 14 17 13 17 -14 6z"/>
<path d="M2371 4514 c0 -11 3 -14 6 -6 3 7 2 16 -1 19 -3 4 -6 -2 -5 -13z"/>
<path d="M1835 4510 c3 -5 8 -10 11 -10 2 0 4 5 4 10 0 6 -5 10 -11 10 -5 0
-7 -4 -4 -10z"/>
<path d="M2021 4504 c0 -11 3 -14 6 -6 3 7 2 16 -1 19 -3 4 -6 -2 -5 -13z"/>
<path d="M4490 4500 c-34 -19 -34 -19 -9 -20 15 0 32 7 39 15 20 24 9 25 -30
5z"/>
<path d="M1625 4499 c-10 -14 -1 -21 19 -13 9 3 13 10 10 15 -7 12 -21 11 -29
-2z"/>
<path d="M1880 4490 c0 -5 5 -10 10 -10 6 0 10 5 10 10 0 6 -4 10 -10 10 -5 0
-10 -4 -10 -10z"/>
<path d="M1680 4480 c0 -5 5 -10 10 -10 6 0 10 5 10 10 0 6 -4 10 -10 10 -5 0
-10 -4 -10 -10z"/>
<path d="M2066 4477 c3 -10 9 -15 12 -12 3 3 0 11 -7 18 -10 9 -11 8 -5 -6z"/>
<path d="M1647 4473 c-12 -11 -8 -23 8 -23 8 0 15 7 15 15 0 16 -12 20 -23 8z"/>
<path d="M2042 4460 c0 -14 2 -19 5 -12 2 6 2 18 0 25 -3 6 -5 1 -5 -13z"/>
<path d="M1825 4460 c3 -5 8 -10 11 -10 2 0 4 5 4 10 0 6 -5 10 -11 10 -5 0
-7 -4 -4 -10z"/>
<path d="M1696 4452 c-3 -6 -1 -14 5 -17 15 -10 25 3 12 16 -7 7 -13 7 -17 1z"/>
<path d="M1900 4450 c0 -5 5 -10 10 -10 6 0 10 5 10 10 0 6 -4 10 -10 10 -5 0
-10 -4 -10 -10z"/>
<path d="M2010 4445 c0 -8 4 -15 10 -15 5 0 7 7 4 15 -4 8 -8 15 -10 15 -2 0
-4 -7 -4 -15z"/>
<path d="M1870 4441 c0 -5 5 -13 10 -16 6 -3 10 -2 10 4 0 5 -4 13 -10 16 -5
3 -10 2 -10 -4z"/>
<path d="M2190 4439 c0 -5 5 -7 10 -4 6 3 10 8 10 11 0 2 -4 4 -10 4 -5 0 -10
-5 -10 -11z"/>
<path d="M2930 4436 c0 -9 7 -16 16 -16 9 0 14 5 12 12 -6 18 -28 21 -28 4z"/>
<path d="M1660 4425 c0 -9 5 -15 11 -13 6 2 11 8 11 13 0 5 -5 11 -11 13 -6 2
-11 -4 -11 -13z"/>
<path d="M2630 4389 c0 -42 -3 -52 -20 -56 -11 -3 -20 -10 -20 -15 0 -6 -7 -5
-15 2 -13 11 -15 2 -14 -76 1 -57 4 -80 8 -64 5 14 6 44 4 66 -4 39 -2 42 26
52 28 10 31 9 31 -9 0 -11 -7 -27 -15 -35 -19 -19 -19 -44 -1 -44 8 0 17 -8
19 -17 2 -10 5 42 5 115 1 72 -1 132 -3 132 -3 0 -5 -23 -5 -51z"/>
<path d="M1840 4414 c0 -8 5 -12 10 -9 6 3 10 10 10 16 0 5 -4 9 -10 9 -5 0
-10 -7 -10 -16z"/>
<path d="M1710 4410 c0 -5 5 -10 10 -10 6 0 10 5 10 10 0 6 -4 10 -10 10 -5 0
-10 -4 -10 -10z"/>
<path d="M2205 4410 c3 -5 8 -10 11 -10 2 0 4 5 4 10 0 6 -5 10 -11 10 -5 0
-7 -4 -4 -10z"/>
<path d="M1682 4398 c2 -6 10 -14 16 -16 7 -2 10 2 6 12 -7 18 -28 22 -22 4z"/>
<path d="M1890 4401 c0 -5 5 -13 10 -16 6 -3 10 -2 10 4 0 5 -4 13 -10 16 -5
3 -10 2 -10 -4z"/>
<path d="M1857 4394 c-8 -8 3 -34 14 -34 11 0 12 27 0 34 -4 3 -11 3 -14 0z"/>
<path d="M2995 4380 c3 -5 8 -10 11 -10 2 0 4 5 4 10 0 6 -5 10 -11 10 -5 0
-7 -4 -4 -10z"/>
<path d="M2561 4364 c0 -11 3 -14 6 -6 3 7 2 16 -1 19 -3 4 -6 -2 -5 -13z"/>
<path d="M2190 4359 c0 -5 5 -7 10 -4 6 3 10 8 10 11 0 2 -4 4 -10 4 -5 0 -10
-5 -10 -11z"/>
<path d="M1880 4335 c0 -8 4 -15 10 -15 5 0 7 7 4 15 -4 8 -8 15 -10 15 -2 0
-4 -7 -4 -15z"/>
<path d="M1750 4331 c0 -6 4 -13 10 -16 6 -3 7 1 4 9 -7 18 -14 21 -14 7z"/>
<path d="M2030 4330 c0 -5 5 -10 11 -10 5 0 7 5 4 10 -3 6 -8 10 -11 10 -2 0
-4 -4 -4 -10z"/>
<path d="M2740 4328 c0 -8 10 -23 22 -34 l21 -19 -18 30 c-26 41 -25 40 -25
23z"/>
<path d="M2000 4320 c0 -5 5 -10 10 -10 6 0 10 5 10 10 0 6 -4 10 -10 10 -5 0
-10 -4 -10 -10z"/>
<path d="M2210 4309 c0 -5 5 -7 10 -4 6 3 10 8 10 11 0 2 -4 4 -10 4 -5 0 -10
-5 -10 -11z"/>
<path d="M2447 4313 c-11 -10 -8 -63 3 -63 6 0 10 16 10 35 0 36 -2 40 -13 28z"/>
<path d="M2021 4284 c0 -11 3 -14 6 -6 3 7 2 16 -1 19 -3 4 -6 -2 -5 -13z"/>
<path d="M2225 4290 c-3 -5 -1 -10 4 -10 6 0 11 5 11 10 0 6 -2 10 -4 10 -3 0
-8 -4 -11 -10z"/>
<path d="M2810 4284 c0 -8 -4 -12 -10 -9 -14 8 -13 2 5 -31 l15 -29 0 43 c0
23 -2 42 -5 42 -3 0 -5 -7 -5 -16z"/>
<path d="M3845 4279 c-22 -5 -77 -6 -122 -3 -53 4 -83 3 -83 -4 0 -5 -15 -15
-32 -22 -118 -47 -143 -140 -39 -140 64 0 71 14 28 58 -37 38 -45 52 -28 52
22 0 71 -53 71 -76 0 -13 5 -24 11 -24 6 0 44 16 86 36 72 35 77 36 141 28 37
-5 77 -7 90 -6 23 3 24 -8 7 -65 -6 -17 13 -29 80 -48 33 -10 52 -20 43 -22
-24 -6 -94 15 -112 33 -17 16 -57 9 -139 -23 l-38 -16 58 -25 c60 -26 96 -31
124 -18 12 5 18 1 22 -13 3 -14 0 -21 -10 -21 -23 0 -43 -25 -32 -41 11 -17
12 -59 2 -58 -5 0 -17 4 -27 8 -23 9 -33 51 -11 51 10 0 7 8 -10 26 -22 24
-29 25 -75 19 -64 -9 -75 -23 -12 -17 l47 4 24 -53 c14 -30 26 -57 29 -61 2
-5 -8 -8 -23 -8 -40 0 -81 -34 -106 -90 -18 -39 -25 -47 -36 -39 -9 9 -13 8
-13 0 0 -21 43 -30 57 -12 11 14 12 14 13 1 0 -8 4 -21 9 -29 7 -12 12 -11 30
1 11 8 18 18 14 21 -10 11 43 8 72 -3 14 -5 29 -19 33 -29 6 -18 12 -15 65 31
47 41 56 54 51 72 -4 11 -13 25 -20 29 -8 4 -14 14 -14 22 0 9 -6 12 -17 8
-10 -4 -14 -2 -9 5 3 6 1 14 -5 18 -7 4 -9 3 -6 -3 4 -6 0 -16 -7 -23 -12 -9
-17 -7 -24 7 -12 21 6 52 26 46 18 -7 15 8 -5 23 -16 11 -16 13 9 19 16 4 25
11 22 16 -3 5 -10 6 -16 3 -13 -8 -2 12 19 38 13 15 19 14 76 -8 33 -13 64
-30 69 -37 4 -6 8 -33 8 -59 0 -42 2 -46 21 -41 18 5 20 11 15 47 -3 23 -8 56
-10 74 -2 19 -12 42 -20 51 -9 10 -16 25 -16 33 0 11 -25 25 -77 43 -125 43
-125 44 -120 85 3 19 8 45 12 57 5 17 0 29 -23 53 -33 32 -66 37 -147 19z m95
-25 l40 -16 -37 -19 c-47 -24 -50 -24 -28 1 10 11 14 20 8 20 -14 0 -50 29
-36 30 7 0 31 -7 53 -16z m-280 -44 c0 -5 -7 -7 -15 -4 -8 4 -15 8 -15 10 0 2
7 4 15 4 8 0 15 -4 15 -10z m-135 -60 c3 -5 1 -10 -4 -10 -6 0 -11 5 -11 10 0
6 2 10 4 10 3 0 8 -4 11 -10z m337 -372 c-7 -7 -8 -16 -3 -22 5 -6 7 -23 4
-39 -5 -25 -6 -26 -19 -10 -7 10 -14 25 -14 33 0 19 30 63 38 55 3 -3 0 -11
-6 -17z m70 -24 c-23 -32 -33 -30 -21 5 7 19 16 28 25 24 11 -4 10 -9 -4 -29z"/>
<path d="M1905 4270 c3 -5 8 -10 11 -10 2 0 4 5 4 10 0 6 -5 10 -11 10 -5 0
-7 -4 -4 -10z"/>
<path d="M2190 4270 c0 -5 5 -10 10 -10 6 0 10 5 10 10 0 6 -4 10 -10 10 -5 0
-10 -4 -10 -10z"/>
<path d="M2740 4260 c0 -5 5 -10 11 -10 5 0 7 5 4 10 -3 6 -8 10 -11 10 -2 0
-4 -4 -4 -10z"/>
<path d="M2000 4239 c0 -5 5 -7 10 -4 6 3 10 8 10 11 0 2 -4 4 -10 4 -5 0 -10
-5 -10 -11z"/>
<path d="M2740 4228 c0 -15 68 -53 78 -43 3 3 0 5 -6 5 -6 0 -24 12 -41 26
-21 17 -31 21 -31 12z"/>
<path d="M1880 4211 c0 -11 4 -22 9 -25 4 -3 6 6 3 19 -5 30 -12 33 -12 6z"/>
<path d="M2080 4220 c0 -5 5 -10 11 -10 5 0 7 5 4 10 -3 6 -8 10 -11 10 -2 0
-4 -4 -4 -10z"/>
<path d="M2055 4210 c-3 -5 -1 -10 4 -10 6 0 11 5 11 10 0 6 -2 10 -4 10 -3 0
-8 -4 -11 -10z"/>
<path d="M2020 4189 c0 -5 5 -7 10 -4 6 3 10 8 10 11 0 2 -4 4 -10 4 -5 0 -10
-5 -10 -11z"/>
<path d="M2740 4180 c0 -5 8 -14 18 -19 14 -7 19 -6 19 4 0 7 -7 11 -15 7 -10
-3 -13 -1 -8 6 4 7 2 12 -3 12 -6 0 -11 -4 -11 -10z"/>
<path d="M3388 4173 c-24 -28 -38 -59 -38 -86 0 -19 4 -24 18 -20 12 3 22 22
31 60 14 61 12 72 -11 46z"/>
<path d="M2572 4138 c-8 -8 -11 -42 -11 -97 1 -48 4 -72 6 -56 3 17 17 46 31
65 l26 34 7 -24 c5 -16 7 -3 7 35 -1 33 -3 47 -5 30 -5 -34 -63 -96 -63 -67 0
9 4 34 9 55 10 41 10 42 -7 25z"/>
<path d="M2797 4139 c7 -7 15 -10 18 -7 3 3 -2 9 -12 12 -14 6 -15 5 -6 -5z"/>
<path d="M2030 4040 c0 -5 6 -10 14 -10 7 0 19 -7 26 -15 7 -8 17 -15 23 -15
6 0 -4 11 -23 25 -38 28 -40 29 -40 15z"/>
<path d="M2430 4046 c0 -2 8 -10 18 -17 15 -13 16 -12 3 4 -13 16 -21 21 -21
13z"/>
<path d="M2375 4011 c-9 -30 6 -50 17 -21 5 14 5 27 -1 33 -5 5 -12 1 -16 -12z"/>
<path d="M2332 3950 c0 -19 2 -27 5 -17 2 9 2 25 0 35 -3 9 -5 1 -5 -18z"/>
<path d="M3431 3973 c-1 -6 -4 -20 -7 -30 -5 -17 -5 -17 6 0 6 10 9 23 6 30
-3 9 -5 9 -5 0z"/>
<path d="M2380 3940 c0 -5 5 -10 11 -10 5 0 7 5 4 10 -3 6 -8 10 -11 10 -2 0
-4 -4 -4 -10z"/>
<path d="M2560 3904 c0 -8 5 -12 10 -9 6 3 10 10 10 16 0 5 -4 9 -10 9 -5 0
-10 -7 -10 -16z"/>
<path d="M2341 3894 c0 -11 3 -14 6 -6 3 7 2 16 -1 19 -3 4 -6 -2 -5 -13z"/>
<path d="M2440 3870 c0 -28 -2 -29 -20 -18 -16 10 -22 10 -32 0 -11 -11 -9
-16 6 -28 19 -14 19 -14 -2 -14 -12 0 -22 -4 -22 -10 0 -12 33 -30 55 -30 13
0 14 4 5 20 -12 22 -1 27 19 8 10 -11 12 -2 9 44 -3 59 -18 82 -18 28z"/>
<path d="M2012 3870 c0 -14 2 -19 5 -12 2 6 2 18 0 25 -3 6 -5 1 -5 -13z"/>
<path d="M4160 3870 c20 -13 33 -13 25 0 -3 6 -14 10 -23 10 -15 0 -15 -2 -2
-10z"/>
<path d="M4150 3851 c0 -5 5 -13 10 -16 6 -3 10 -2 10 4 0 5 -4 13 -10 16 -5
3 -10 2 -10 -4z"/>
<path d="M1888 3813 c7 -3 16 -2 19 1 4 3 -2 6 -13 5 -11 0 -14 -3 -6 -6z"/>
<path d="M4315 3805 c30 -25 59 -39 51 -26 -4 6 -22 18 -39 27 -30 14 -31 14
-12 -1z"/>
<path d="M3547 3763 c-18 -20 -36 -84 -19 -68 10 10 44 85 38 85 -2 0 -10 -8
-19 -17z"/>
<path d="M2520 3740 c0 -5 5 -10 10 -10 6 0 10 5 10 10 0 6 -4 10 -10 10 -5 0
-10 -4 -10 -10z"/>
<path d="M2632 3720 c0 -19 2 -27 5 -17 2 9 2 25 0 35 -3 9 -5 1 -5 -18z"/>
<path d="M2560 3721 c0 -12 6 -21 16 -21 9 0 14 7 12 17 -5 25 -28 28 -28 4z"/>
<path d="M3665 3700 c-3 -5 1 -10 9 -10 9 0 16 5 16 10 0 6 -4 10 -9 10 -6 0
-13 -4 -16 -10z"/>
<path d="M2191 3674 c0 -11 3 -14 6 -6 3 7 2 16 -1 19 -3 4 -6 -2 -5 -13z"/>
<path d="M3545 3681 c-7 -12 31 -25 45 -16 6 4 8 11 5 16 -8 12 -42 12 -50 0z"/>
<path d="M2610 3671 c0 -5 6 -14 14 -20 11 -9 16 -9 21 0 4 6 1 15 -6 20 -18
11 -29 11 -29 0z"/>
<path d="M953 3591 c-18 -11 -46 -40 -62 -63 -16 -24 -36 -50 -44 -59 -20 -23
-27 -67 -11 -80 9 -7 10 -18 5 -32 -6 -14 -4 -26 3 -33 17 -16 46 -25 46 -14
0 6 -7 10 -15 10 -8 0 -15 4 -15 9 0 5 19 7 43 5 23 -2 63 1 89 8 56 14 74 4
84 -48 6 -33 27 -38 23 -6 -2 28 1 42 9 42 5 0 8 -10 8 -22 -1 -13 5 -23 14
-24 52 -4 51 -3 40 -24 -6 -11 -25 -23 -43 -28 -25 -6 -35 -16 -43 -43 -15
-44 -46 -50 -80 -14 -20 22 -31 26 -69 24 -37 -2 -44 -6 -39 -18 3 -9 12 -37
20 -62 20 -65 50 -90 116 -94 29 -2 73 -13 97 -25 24 -12 58 -24 75 -27 l31
-5 -7 104 c-5 56 -9 126 -9 153 -1 28 -5 55 -10 61 -6 8 -1 10 18 7 27 -3 27
-3 6 8 -20 11 -22 17 -17 78 4 53 1 79 -16 123 -28 75 -46 89 -117 92 -32 2
-67 6 -78 10 -13 4 -32 -1 -52 -13z m37 -41 c0 -5 -5 -10 -11 -10 -5 0 -7 5
-4 10 3 6 8 10 11 10 2 0 4 -4 4 -10z m-56 -32 c-9 -14 -23 2 -17 18 4 12 8
13 14 3 4 -7 5 -17 3 -21z m86 17 c-7 -9 -15 -13 -17 -11 -7 7 7 26 19 26 6 0
6 -6 -2 -15z m15 -85 c4 -6 -7 -10 -24 -10 -17 0 -31 4 -31 8 0 11 48 13 55 2z
m165 1 c-28 -16 -60 -22 -60 -12 0 10 22 18 55 20 16 0 17 -1 5 -8z m-284 -40
c-5 -8 -56 -3 -56 5 0 2 14 4 31 4 16 0 28 -4 25 -9z m44 5 c0 -11 -19 -15
-25 -6 -3 5 1 10 9 10 9 0 16 -2 16 -4z m224 -117 c-3 -5 -12 -9 -20 -9 -17 0
-19 47 -1 53 13 4 30 -30 21 -44z m-14 -135 c0 -20 -4 -33 -10 -29 -5 3 -16
-8 -25 -24 -29 -58 -30 -38 0 25 16 35 31 64 32 64 2 0 3 -16 3 -36z"/>
<path d="M1727 3503 c12 -55 7 -189 -7 -224 -16 -37 -37 -49 -91 -49 l-43 0
34 -35 c26 -27 35 -46 41 -91 13 -97 -9 -111 -44 -29 -12 28 -27 56 -34 63 -7
7 -16 24 -19 38 -9 33 -27 30 -20 -3 25 -138 27 -163 18 -246 -9 -80 -13 -91
-48 -134 -65 -78 -73 -93 -67 -129 4 -27 2 -34 -11 -34 -9 0 -16 5 -16 11 0 5
-5 7 -11 3 -12 -7 -12 -6 11 40 11 23 12 30 2 34 -6 2 -12 9 -12 17 0 7 -6 18
-14 24 -11 10 -15 8 -18 -6 -3 -10 -8 2 -12 27 -13 74 -46 97 -46 33 0 -21 -4
-55 -9 -76 -11 -48 -4 -79 18 -73 9 3 22 2 29 -3 10 -6 4 -10 -20 -15 -18 -3
-40 -16 -48 -27 l-16 -20 -44 20 c-68 31 -117 26 -85 -9 8 -8 21 -32 29 -51
l15 -36 -57 0 c-77 1 -193 -51 -227 -101 l-24 -35 -10 24 c-6 13 -19 46 -29
74 l-19 49 -37 -114 c-41 -130 -42 -136 -19 -148 15 -9 14 -13 -7 -47 -20 -32
-22 -46 -17 -109 6 -88 24 -150 48 -172 12 -11 36 -16 69 -16 38 0 49 -3 40
-12 -6 -6 -33 -11 -60 -11 -38 0 -50 -4 -50 -15 0 -8 26 -91 57 -183 45 -131
63 -172 81 -181 l22 -12 -30 -34 c-16 -19 -29 -41 -30 -47 0 -7 -4 -13 -10
-13 -14 0 -12 11 4 29 7 9 17 27 21 41 6 22 -77 -100 -251 -370 -27 -41 -68
-96 -92 -122 -42 -45 -45 -47 -118 -53 -41 -4 -74 -11 -74 -16 0 -5 -22 -9
-49 -9 -48 0 -49 0 -59 -40 -7 -29 -7 -40 2 -40 6 -1 36 -3 66 -6 30 -3 84 -1
120 5 90 15 114 40 285 299 61 91 70 101 84 88 47 -42 136 -24 202 40 47 46
75 51 82 16 8 -43 -8 -69 -55 -85 -83 -29 -125 -39 -168 -41 -27 0 -45 -6 -48
-15 -4 -11 5 -13 44 -8 27 4 354 8 726 9 l678 3 0 112 0 113 163 2 162 3 3
124 3 123 -68 -6 c-37 -4 -80 -9 -95 -12 -17 -3 -28 -1 -28 5 0 6 9 11 20 11
25 0 25 11 0 40 -13 15 -18 30 -13 39 10 20 17 201 8 201 -4 0 -25 -14 -46
-31 -36 -29 -39 -34 -39 -82 0 -61 -10 -127 -19 -127 -3 0 -5 42 -3 92 l3 93
41 37 c29 25 36 36 23 33 -80 -16 -85 -15 -85 8 0 13 -7 32 -16 43 -15 18 -15
18 -9 -8 7 -35 -7 -36 -25 -4 -8 15 -11 41 -7 65 4 36 3 39 -10 26 -21 -22
-33 -18 -33 10 0 28 -19 35 -21 8 -3 -41 -17 48 -18 113 0 40 -9 116 -19 170
-11 55 -18 128 -16 164 1 36 3 83 4 105 l1 40 23 -27 c36 -40 50 -135 41 -284
-6 -109 -5 -131 10 -165 10 -21 22 -39 27 -39 11 0 10 32 -7 124 -9 51 -12
114 -9 175 5 81 2 105 -15 155 -12 33 -21 74 -21 93 0 19 -7 47 -15 63 -16 30
-32 42 -22 16 6 -15 -12 -26 -44 -26 -20 0 -53 -28 -61 -50 -3 -10 -9 -10 -28
0 -56 30 -69 86 -22 95 34 8 84 33 98 52 7 7 16 12 21 11 5 -2 44 15 86 37
l77 40 0 258 0 257 -34 0 c-26 0 -35 5 -41 23 -8 21 -8 21 -12 -5 -4 -26 -8
-28 -48 -28 -24 0 -46 4 -50 10 -3 6 -15 6 -29 0 -15 -5 -27 -5 -34 2 -6 6
-12 6 -16 -1 -8 -12 -76 -15 -112 -5 -15 4 -20 11 -17 25 5 18 -4 24 -34 20
-7 -1 -13 6 -13 16 0 11 -3 14 -8 7 -5 -8 -21 -5 -56 12 -28 13 -51 24 -53 24
-2 0 0 -17 4 -37z m146 -73 c3 -13 0 -23 -9 -27 -8 -3 -14 -9 -14 -13 0 -5
-13 -24 -30 -42 -38 -41 -38 -32 1 48 30 65 42 72 52 34z m-183 -692 c-1 -13
-7 -34 -14 -47 -13 -24 -14 -24 -20 -3 -4 11 -14 22 -22 24 -13 3 -12 6 1 26
9 12 25 22 36 22 13 0 19 -7 19 -22z m280 -32 c0 -11 -19 -15 -25 -6 -3 5 1
10 9 10 9 0 16 -2 16 -4z m-336 -55 c7 -11 -130 -251 -155 -271 -10 -8 -30
-30 -44 -49 -34 -47 -31 -34 11 52 59 120 108 197 122 192 7 -3 10 0 7 5 -7
12 32 80 45 80 5 0 11 -4 14 -9z m-430 -222 c14 -11 26 -29 26 -40 0 -23 -6
-24 -28 -3 -12 12 -29 15 -70 12 -73 -6 -112 -46 -112 -111 0 -24 -6 -52 -14
-62 -13 -18 -14 -18 -25 3 -31 59 43 173 127 194 23 6 45 14 48 19 8 14 19 11
48 -12z m241 -122 c-19 -35 -35 -74 -35 -85 0 -15 -6 -22 -20 -22 -20 0 -20 1
3 38 14 20 36 58 51 85 15 26 29 47 32 47 3 0 -11 -29 -31 -63z m-222 -24 c-7
-2 -19 -2 -25 0 -7 3 -2 5 12 5 14 0 19 -2 13 -5z m-33 -77 c0 -2 -7 -9 -15
-16 -12 -10 -15 -10 -15 4 0 9 7 16 15 16 8 0 15 -2 15 -4z m174 -64 c-4 -15
-8 -30 -8 -34 -2 -19 -22 -1 -33 30 -8 25 -8 31 0 23 16 -16 25 -14 33 12 10
31 18 3 8 -31z m-55 -54 c0 -18 -57 -61 -69 -53 -16 10 -12 43 8 54 24 14 62
13 61 -1z m923 -155 c-2 -43 -8 -82 -13 -87 -10 -11 -13 123 -3 148 14 36 21
11 16 -61z m-1236 8 c-15 -14 -18 -14 -26 -1 -7 11 -3 20 13 32 20 15 22 15
25 1 2 -8 -3 -23 -12 -32z m761 31 c15 -9 -53 -85 -71 -79 -6 2 -27 -2 -46
-10 -33 -13 -32 -11 23 42 58 55 71 62 94 47z m73 -105 c0 -2 -10 -12 -22 -23
l-23 -19 19 23 c18 21 26 27 26 19z m-670 -23 c0 -3 -13 -24 -28 -47 -26 -39
-56 -84 -125 -194 -18 -28 -35 -43 -47 -43 -18 0 -19 3 -10 20 6 11 16 17 22
14 7 -4 8 -3 4 4 -7 12 72 132 87 132 5 0 7 6 4 13 -6 17 11 47 28 47 7 0 17
5 21 12 4 7 3 8 -4 4 -17 -11 -14 5 5 26 15 17 43 25 43 12z m430 -42 c-15 -5
-41 18 -34 30 3 5 15 1 26 -9 11 -10 15 -19 8 -21z m-581 -238 c-56 -84 -56
-88 14 -99 31 -6 36 -9 26 -21 -9 -11 -8 -14 5 -14 20 0 20 -4 1 -40 -21 -40
-88 -91 -84 -62 3 18 -2 26 -9 15 -6 -9 -19 -9 -57 2 -40 11 -54 20 -24 17 4
-1 6 6 5 16 -1 13 7 16 34 16 26 -1 28 0 8 3 -16 2 -28 7 -28 10 0 9 149 233
155 233 3 0 -18 -34 -46 -76z m1039 -115 c3 -62 2 -64 -26 -77 -15 -6 -38 -21
-50 -32 -18 -17 -22 -18 -23 -5 -3 36 -19 75 -30 75 -18 0 -9 21 14 29 12 5
38 25 57 45 19 20 39 35 45 33 5 -2 11 -33 13 -68z m-985 24 c-7 -2 -19 -2
-25 0 -7 3 -2 5 12 5 14 0 19 -2 13 -5z m40 -36 c-8 -44 -26 -78 -54 -102
l-23 -20 17 25 c27 38 49 92 49 117 0 13 4 20 9 17 5 -2 6 -19 2 -37z m27 0
c0 -13 -6 -32 -14 -43 -13 -17 -14 -14 -4 24 12 47 18 54 18 19z m1054 -138
c17 -24 26 -48 23 -60 -3 -10 -1 -17 4 -13 5 3 9 1 9 -5 0 -6 -18 -20 -40 -31
-47 -24 -61 -26 -34 -5 17 14 16 14 -13 0 -46 -22 -66 -19 -101 15 l-31 30 22
15 c12 9 41 29 65 46 23 16 41 33 38 37 -3 4 3 8 12 9 9 1 30 -17 46 -38z
m-1294 17 c0 -3 -4 -8 -10 -11 -5 -3 -10 -1 -10 4 0 6 5 11 10 11 6 0 10 -2
10 -4z"/>
<path d="M1680 1910 c0 -5 5 -10 11 -10 5 0 7 5 4 10 -3 6 -8 10 -11 10 -2 0
-4 -4 -4 -10z"/>
<path d="M934 1439 c-3 -5 9 -9 25 -9 17 0 31 2 31 4 0 8 -51 13 -56 5z"/>
<path d="M943 1413 c9 -2 23 -2 30 0 6 3 -1 5 -18 5 -16 0 -22 -2 -12 -5z"/>
<path d="M985 1370 c3 -5 8 -10 11 -10 2 0 4 5 4 10 0 6 -5 10 -11 10 -5 0 -7
-4 -4 -10z"/>
<path d="M1958 1419 c-10 -5 -18 -15 -18 -21 0 -6 9 -3 20 7 11 10 23 15 27
12 3 -4 1 -7 -6 -7 -7 0 -11 -6 -8 -14 3 -7 0 -19 -6 -25 -8 -8 -8 -11 0 -11
6 0 16 7 23 15 7 8 9 15 5 15 -4 0 -2 6 4 14 9 11 8 15 -5 20 -19 7 -15 8 -36
-5z"/>
<path d="M2170 1244 c0 -8 5 -12 10 -9 6 3 10 10 10 16 0 5 -4 9 -10 9 -5 0
-10 -7 -10 -16z"/>
<path d="M1560 3447 c0 -18 32 -47 51 -47 8 0 20 5 27 12 9 9 15 8 25 -7 21
-28 38 -11 25 25 -12 35 -39 39 -68 10 -11 -11 -22 -20 -25 -20 -3 0 -5 9 -5
20 0 11 -7 20 -15 20 -8 0 -15 -6 -15 -13z"/>
<path d="M950 3312 c0 -5 14 -7 30 -4 17 2 30 6 30 8 0 2 -13 4 -30 4 -16 0
-30 -4 -30 -8z"/>
<path d="M885 3280 c3 -5 8 -10 11 -10 2 0 4 5 4 10 0 6 -5 10 -11 10 -5 0 -7
-4 -4 -10z"/>
<path d="M955 3280 c-8 -13 5 -13 25 0 13 8 13 10 -2 10 -9 0 -20 -4 -23 -10z"/>
<path d="M2442 3220 c0 -14 2 -19 5 -12 2 6 2 18 0 25 -3 6 -5 1 -5 -13z"/>
<path d="M2560 3215 c0 -8 5 -15 10 -15 6 0 10 7 10 15 0 8 -4 15 -10 15 -5 0
-10 -7 -10 -15z"/>
<path d="M1516 3203 c-2 -10 -1 -36 4 -58 9 -46 12 -40 14 28 2 47 -8 63 -18
30z"/>
<path d="M1570 3201 c12 -23 29 -35 37 -27 7 7 -26 46 -39 46 -5 0 -4 -9 2
-19z"/>
<path d="M1626 3114 c2 -20 9 -44 14 -53 12 -21 12 -5 1 37 -6 21 -6 32 0 32
6 0 7 5 4 10 -13 22 -23 8 -19 -26z"/>
<path d="M2440 3075 c0 -15 4 -24 10 -20 6 3 10 12 10 20 0 8 -4 17 -10 20 -6
4 -10 -5 -10 -20z"/>
<path d="M2618 3018 c-14 -17 -20 -19 -32 -9 -10 8 -16 9 -21 1 -3 -5 -21 -10
-38 -10 -42 0 -59 -37 -40 -90 6 -19 12 -55 11 -80 0 -43 -1 -43 -9 14 -5 33
-13 64 -19 70 -12 12 -13 6 -11 -89 1 -38 -2 -83 -7 -100 -6 -21 -8 -2 -4 58
3 48 1 87 -4 87 -5 0 -20 -12 -33 -25 -13 -14 -30 -25 -39 -25 -12 0 -13 -3
-4 -12 24 -24 14 -72 -23 -108 -26 -25 -35 -42 -35 -67 0 -23 5 -33 15 -33 21
0 88 35 104 54 8 9 23 16 34 16 19 0 19 -1 4 -18 -10 -10 -15 -21 -12 -23 2
-3 -11 -23 -30 -44 -25 -30 -33 -45 -27 -60 4 -11 7 -95 7 -187 0 -91 3 -170
7 -174 4 -4 59 2 122 13 95 17 116 18 132 6 24 -18 28 -17 60 10 l27 23 -33
27 c-17 15 -62 45 -98 67 -171 103 -188 128 -156 219 19 55 19 58 2 53 -10 -2
-18 0 -18 6 0 15 29 42 45 42 8 0 28 26 45 58 17 31 40 68 51 81 19 23 22 24
70 13 28 -7 66 -12 84 -12 18 0 35 -6 37 -12 9 -27 30 38 34 100 4 91 -30 149
-84 140 -9 -1 -23 1 -30 6 -7 4 -19 2 -28 -5 -16 -13 -30 -5 -36 23 -3 16 -5
15 -20 -4z m-138 -285 c-11 -17 -11 -17 -6 0 3 10 7 26 7 35 1 15 2 15 6 0 2
-10 -1 -25 -7 -35z"/>
<path d="M2376 2975 c-7 -27 -2 -29 39 -15 43 14 41 35 -3 35 -22 0 -32 -5
-36 -20z"/>
<path d="M3642 2841 c-10 -6 -5 -11 19 -20 40 -14 36 -15 49 9 10 18 8 20 -22
20 -18 0 -39 -4 -46 -9z"/>
<path d="M3465 2805 c0 -19 -2 -35 -6 -35 -3 0 -4 -11 -1 -25 2 -15 0 -25 -7
-25 -24 0 -9 -51 39 -131 28 -46 61 -94 74 -107 l23 -23 -1 84 c-1 70 2 89 18
106 21 23 50 27 93 10 l28 -10 -27 -21 c-16 -11 -28 -25 -28 -31 0 -7 -5 -19
-10 -27 -8 -13 -11 -13 -19 -1 -10 15 -31 7 -31 -12 0 -8 16 -12 45 -11 48 2
56 -8 30 -42 -8 -10 -15 -29 -15 -40 0 -12 -8 -32 -19 -45 -13 -17 -16 -30
-11 -49 11 -39 41 -93 47 -86 3 3 -2 17 -11 31 -9 14 -14 30 -11 35 3 5 1 11
-5 15 -5 3 -10 12 -10 18 0 7 9 1 20 -13 11 -14 20 -19 20 -12 0 10 5 10 22 1
16 -9 23 -9 26 0 2 6 8 11 13 11 4 0 6 -7 3 -15 -11 -27 14 -16 33 15 22 37
33 38 33 3 l1 -28 16 29 c12 23 14 46 9 108 -8 91 -12 105 -34 113 -10 3 -53
40 -97 82 -44 42 -98 84 -120 93 l-40 17 -37 -35 c-45 -43 -58 -36 -29 14 21
34 21 38 5 55 -24 27 -31 24 -29 -16z m344 -309 c-10 -27 -16 -33 -26 -24 -17
14 -17 28 1 28 8 0 18 9 21 21 4 11 9 18 12 16 3 -3 -1 -21 -8 -41z"/>
<path d="M3556 2831 c-4 -7 -5 -15 -2 -18 9 -9 19 4 14 18 -4 11 -6 11 -12 0z"/>
<path d="M918 2713 c7 -3 16 -2 19 1 4 3 -2 6 -13 5 -11 0 -14 -3 -6 -6z"/>
<path d="M1131 2706 c-9 -10 -9 -21 -3 -32 8 -14 10 -12 16 11 8 33 3 41 -13
21z"/>
<path d="M842 2668 c-19 -19 -14 -57 12 -81 19 -18 21 -25 12 -39 -17 -27 4
-41 42 -27 46 16 42 58 -9 85 -34 17 -39 35 -8 27 17 -5 20 -2 17 18 -3 27
-45 38 -66 17z"/>
<path d="M3790 2677 c0 -2 15 -16 33 -33 l32 -29 -29 33 c-28 30 -36 37 -36
29z"/>
<path d="M4287 2654 c-8 -8 1 -24 14 -24 5 0 9 7 9 15 0 15 -12 20 -23 9z"/>
<path d="M2694 2623 c-10 -16 -39 -54 -66 -86 -26 -32 -48 -61 -48 -66 0 -4
15 -12 34 -19 36 -13 236 -229 236 -255 0 -9 -18 -30 -40 -47 -22 -17 -38 -36
-34 -41 3 -5 79 -9 170 -9 153 0 165 1 160 18 -5 17 -26 220 -26 255 0 11 8
17 23 17 21 0 23 4 22 52 0 51 0 52 35 59 40 9 64 -1 32 -12 -18 -7 -22 -16
-22 -49 0 -37 2 -41 22 -38 21 3 24 -3 35 -72 12 -75 16 -156 6 -133 -3 8 -14
11 -27 7 -21 -5 -23 -2 -22 41 1 26 -2 49 -6 52 -14 8 -8 33 8 33 9 0 14 5 12
11 -2 6 -7 10 -12 9 -4 -1 -14 7 -21 17 -20 27 -23 15 -14 -62 5 -38 12 -100
15 -137 7 -64 8 -67 28 -56 12 6 31 19 42 30 21 19 22 19 28 -6 12 -49 -20
-131 -57 -146 -15 -6 -3 -7 33 -3 30 3 60 12 66 19 6 8 16 14 23 14 6 0 11 6
11 13 0 9 3 8 9 -2 7 -11 14 -11 41 3 18 9 41 16 52 16 10 0 18 6 18 13 0 19
-18 42 -26 34 -4 -4 -17 -1 -29 7 -17 12 -24 12 -39 0 -14 -9 -24 -10 -38 -3
-10 5 -23 7 -28 4 -5 -3 -12 0 -16 6 -4 8 -3 9 4 5 8 -5 12 1 12 18 0 14 9 31
21 39 14 11 17 16 7 19 -11 4 -10 8 1 22 18 21 10 29 -23 20 -22 -5 -26 -12
-28 -48 -2 -77 -16 129 -17 266 l-1 136 -272 -1 -273 -2 3 33 c3 39 -1 40 -24
5z m523 -195 c-3 -8 -6 -5 -6 6 -1 11 2 17 5 13 3 -3 4 -12 1 -19z m193 -363
c0 -18 -25 -26 -39 -12 -17 17 -13 31 4 17 12 -10 15 -9 15 4 0 10 5 14 10 11
6 -3 10 -12 10 -20z"/>
<path d="M3605 2510 c3 -5 1 -10 -6 -10 -10 0 -10 -3 -2 -11 6 -6 16 -8 22 -5
12 8 4 36 -11 36 -5 0 -6 -4 -3 -10z"/>
<path d="M3608 2453 c6 -2 18 -2 25 0 6 3 1 5 -13 5 -14 0 -19 -2 -12 -5z"/>
<path d="M2306 2232 c-8 -83 -3 -110 14 -82 11 17 11 104 1 140 -6 18 -10 2
-15 -58z"/>
<path d="M3712 2290 c0 -14 2 -19 5 -12 2 6 2 18 0 25 -3 6 -5 1 -5 -13z"/>
<path d="M3696 2247 c3 -10 9 -15 12 -12 3 3 0 11 -7 18 -10 9 -11 8 -5 -6z"/>
<path d="M3990 2215 c0 -14 0 -28 -1 -32 0 -4 4 -9 10 -11 7 -2 11 11 11 32 0
20 -4 36 -10 36 -5 0 -10 -11 -10 -25z"/>
<path d="M2210 2110 c0 -5 9 -10 20 -10 11 0 20 5 20 10 0 6 -9 10 -20 10 -11
0 -20 -4 -20 -10z"/>
<path d="M3440 2020 c0 -5 5 -10 10 -10 6 0 10 5 10 10 0 6 -4 10 -10 10 -5 0
-10 -4 -10 -10z"/>
<path d="M3448 1993 c7 -3 16 -2 19 1 4 3 -2 6 -13 5 -11 0 -14 -3 -6 -6z"/>
<path d="M3368 1983 c12 -2 32 -2 45 0 12 2 2 4 -23 4 -25 0 -35 -2 -22 -4z"/>
<path d="M3278 1973 c12 -2 32 -2 45 0 12 2 2 4 -23 4 -25 0 -35 -2 -22 -4z"/>
<path d="M2540 1805 c0 -69 -3 -125 -7 -125 -7 0 -36 -52 -30 -55 1 -1 26 1
55 3 l52 4 0 149 0 149 -35 0 -35 0 0 -125z"/>
<path d="M3548 1843 c6 -2 18 -2 25 0 6 3 1 5 -13 5 -14 0 -19 -2 -12 -5z"/>
<path d="M3390 1561 c-7 -15 -7 -21 0 -21 12 0 25 28 17 36 -3 3 -10 -4 -17
-15z"/>
<path d="M3978 1553 c-18 -5 -25 -23 -9 -23 5 0 22 7 37 15 22 11 24 15 9 14
-11 -1 -28 -3 -37 -6z"/>
<path d="M4024 1516 c-3 -8 -4 -23 -2 -33 3 -13 7 -9 15 15 12 31 -1 48 -13
18z"/>
<path d="M3239 1419 l-24 -20 28 17 c15 9 27 18 27 20 0 8 -8 4 -31 -17z"/>
<path d="M4144 1425 c36 -19 42 -19 26 0 -7 8 -22 15 -34 15 -18 0 -17 -2 8
-15z"/>
<path d="M4173 1379 c9 -5 24 -24 33 -40 8 -17 18 -29 20 -26 9 9 -24 64 -41
71 -25 9 -32 7 -12 -5z"/>
<path d="M4160 1362 c0 -5 10 -17 22 -28 l21 -19 -18 28 c-18 28 -25 33 -25
19z"/>
<path d="M3325 1330 c3 -5 19 -10 36 -10 16 0 29 5 29 10 0 6 -16 10 -36 10
-21 0 -33 -4 -29 -10z"/>
<path d="M3638 1243 c7 -3 16 -2 19 1 4 3 -2 6 -13 5 -11 0 -14 -3 -6 -6z"/>
<path d="M1000 1220 c-14 -11 -21 -20 -16 -20 5 0 18 7 28 17 11 9 18 11 18 5
0 -7 7 -12 15 -12 8 0 15 7 15 15 0 21 -30 18 -60 -5z"/>
<path d="M940 1190 c-23 -7 -23 -8 -3 -9 12 -1 25 4 28 9 3 6 5 10 3 9 -2 -1
-14 -5 -28 -9z"/>
<path d="M4091 1164 c0 -11 3 -14 6 -6 3 7 2 16 -1 19 -3 4 -6 -2 -5 -13z"/>
<path d="M4105 1120 c3 -5 8 -10 11 -10 2 0 4 5 4 10 0 6 -5 10 -11 10 -5 0
-7 -4 -4 -10z"/>
<path d="M4251 873 c-1 -12 4 -25 9 -28 12 -7 12 2 0 30 -8 19 -9 19 -9 -2z"/>
<path d="M2914 644 c-18 -14 -18 -14 6 -3 31 14 36 19 24 19 -6 0 -19 -7 -30
-16z"/>
<path d="M2810 589 c-19 -10 -40 -19 -47 -19 -7 0 -13 -4 -13 -10 0 -5 3 -10
7 -10 9 0 93 50 93 55 0 7 0 7 -40 -16z"/>
</g>
</svg>
